<?xml version="1.0" standalone="no"?>
<!DOCTYPE svg PUBLIC "-//W3C//DTD SVG 1.1//EN" "http://www.w3.org/Graphics/SVG/1.1/DTD/svg11.dtd">
<svg width="620" height="620" version="1.1" xmlns="http://www.w3.org/2000/svg">
	<desc>https://qrtag.net/hdgbh6-b9623f</desc>
	<g id="elements" fill="#ffffff" stroke="none">
		<rect x="0" y="0" width="620" height="620" />
	</g>
	<g id="elements" fill="#000000" stroke="none">
		<rect x="20" y="20" width="20" height="20" />
		<rect x="40" y="20" width="20" height="20" />
		<rect x="60" y="20" width="20" height="20" />
		<rect x="80" y="20" width="20" height="20" />
		<rect x="100" y="20" width="20" height="20" />
		<rect x="120" y="20" width="20" height="20" />
		<rect x="140" y="20" width="20" height="20" />
		<rect x="240" y="20" width="20" height="20" />
		<rect x="260" y="20" width="20" height="20" />
		<rect x="280" y="20" width="20" height="20" />
		<rect x="340" y="20" width="20" height="20" />
		<rect x="360" y="20" width="20" height="20" />
		<rect x="380" y="20" width="20" height="20" />
		<rect x="400" y="20" width="20" height="20" />
		<rect x="460" y="20" width="20" height="20" />
		<rect x="480" y="20" width="20" height="20" />
		<rect x="500" y="20" width="20" height="20" />
		<rect x="520" y="20" width="20" height="20" />
		<rect x="540" y="20" width="20" height="20" />
		<rect x="560" y="20" width="20" height="20" />
		<rect x="580" y="20" width="20" height="20" />
		<rect x="20" y="40" width="20" height="20" />
		<rect x="140" y="40" width="20" height="20" />
		<rect x="180" y="40" width="20" height="20" />
		<rect x="240" y="40" width="20" height="20" />
		<rect x="300" y="40" width="20" height="20" />
		<rect x="320" y="40" width="20" height="20" />
		<rect x="340" y="40" width="20" height="20" />
		<rect x="360" y="40" width="20" height="20" />
		<rect x="400" y="40" width="20" height="20" />
		<rect x="460" y="40" width="20" height="20" />
		<rect x="580" y="40" width="20" height="20" />
		<rect x="20" y="60" width="20" height="20" />
		<rect x="60" y="60" width="20" height="20" />
		<rect x="80" y="60" width="20" height="20" />
		<rect x="100" y="60" width="20" height="20" />
		<rect x="140" y="60" width="20" height="20" />
		<rect x="280" y="60" width="20" height="20" />
		<rect x="300" y="60" width="20" height="20" />
		<rect x="340" y="60" width="20" height="20" />
		<rect x="380" y="60" width="20" height="20" />
		<rect x="400" y="60" width="20" height="20" />
		<rect x="420" y="60" width="20" height="20" />
		<rect x="460" y="60" width="20" height="20" />
		<rect x="500" y="60" width="20" height="20" />
		<rect x="520" y="60" width="20" height="20" />
		<rect x="540" y="60" width="20" height="20" />
		<rect x="580" y="60" width="20" height="20" />
		<rect x="20" y="80" width="20" height="20" />
		<rect x="60" y="80" width="20" height="20" />
		<rect x="80" y="80" width="20" height="20" />
		<rect x="100" y="80" width="20" height="20" />
		<rect x="140" y="80" width="20" height="20" />
		<rect x="200" y="80" width="20" height="20" />
		<rect x="240" y="80" width="20" height="20" />
		<rect x="280" y="80" width="20" height="20" />
		<rect x="300" y="80" width="20" height="20" />
		<rect x="320" y="80" width="20" height="20" />
		<rect x="400" y="80" width="20" height="20" />
		<rect x="460" y="80" width="20" height="20" />
		<rect x="500" y="80" width="20" height="20" />
		<rect x="520" y="80" width="20" height="20" />
		<rect x="540" y="80" width="20" height="20" />
		<rect x="580" y="80" width="20" height="20" />
		<rect x="20" y="100" width="20" height="20" />
		<rect x="60" y="100" width="20" height="20" />
		<rect x="80" y="100" width="20" height="20" />
		<rect x="100" y="100" width="20" height="20" />
		<rect x="140" y="100" width="20" height="20" />
		<rect x="180" y="100" width="20" height="20" />
		<rect x="200" y="100" width="20" height="20" />
		<rect x="240" y="100" width="20" height="20" />
		<rect x="260" y="100" width="20" height="20" />
		<rect x="300" y="100" width="20" height="20" />
		<rect x="400" y="100" width="20" height="20" />
		<rect x="460" y="100" width="20" height="20" />
		<rect x="500" y="100" width="20" height="20" />
		<rect x="520" y="100" width="20" height="20" />
		<rect x="540" y="100" width="20" height="20" />
		<rect x="580" y="100" width="20" height="20" />
		<rect x="20" y="120" width="20" height="20" />
		<rect x="140" y="120" width="20" height="20" />
		<rect x="200" y="120" width="20" height="20" />
		<rect x="220" y="120" width="20" height="20" />
		<rect x="240" y="120" width="20" height="20" />
		<rect x="260" y="120" width="20" height="20" />
		<rect x="280" y="120" width="20" height="20" />
		<rect x="380" y="120" width="20" height="20" />
		<rect x="400" y="120" width="20" height="20" />
		<rect x="420" y="120" width="20" height="20" />
		<rect x="460" y="120" width="20" height="20" />
		<rect x="580" y="120" width="20" height="20" />
		<rect x="20" y="140" width="20" height="20" />
		<rect x="40" y="140" width="20" height="20" />
		<rect x="60" y="140" width="20" height="20" />
		<rect x="80" y="140" width="20" height="20" />
		<rect x="100" y="140" width="20" height="20" />
		<rect x="120" y="140" width="20" height="20" />
		<rect x="140" y="140" width="20" height="20" />
		<rect x="180" y="140" width="20" height="20" />
		<rect x="220" y="140" width="20" height="20" />
		<rect x="260" y="140" width="20" height="20" />
		<rect x="300" y="140" width="20" height="20" />
		<rect x="340" y="140" width="20" height="20" />
		<rect x="380" y="140" width="20" height="20" />
		<rect x="420" y="140" width="20" height="20" />
		<rect x="460" y="140" width="20" height="20" />
		<rect x="480" y="140" width="20" height="20" />
		<rect x="500" y="140" width="20" height="20" />
		<rect x="520" y="140" width="20" height="20" />
		<rect x="540" y="140" width="20" height="20" />
		<rect x="560" y="140" width="20" height="20" />
		<rect x="580" y="140" width="20" height="20" />
		<rect x="220" y="160" width="20" height="20" />
		<rect x="240" y="160" width="20" height="20" />
		<rect x="260" y="160" width="20" height="20" />
		<rect x="280" y="160" width="20" height="20" />
		<rect x="300" y="160" width="20" height="20" />
		<rect x="340" y="160" width="20" height="20" />
		<rect x="360" y="160" width="20" height="20" />
		<rect x="420" y="160" width="20" height="20" />
		<rect x="20" y="180" width="20" height="20" />
		<rect x="60" y="180" width="20" height="20" />
		<rect x="100" y="180" width="20" height="20" />
		<rect x="140" y="180" width="20" height="20" />
		<rect x="200" y="180" width="20" height="20" />
		<rect x="220" y="180" width="20" height="20" />
		<rect x="240" y="180" width="20" height="20" />
		<rect x="300" y="180" width="20" height="20" />
		<rect x="320" y="180" width="20" height="20" />
		<rect x="360" y="180" width="20" height="20" />
		<rect x="380" y="180" width="20" height="20" />
		<rect x="420" y="180" width="20" height="20" />
		<rect x="500" y="180" width="20" height="20" />
		<rect x="560" y="180" width="20" height="20" />
		<rect x="60" y="200" width="20" height="20" />
		<rect x="80" y="200" width="20" height="20" />
		<rect x="100" y="200" width="20" height="20" />
		<rect x="120" y="200" width="20" height="20" />
		<rect x="180" y="200" width="20" height="20" />
		<rect x="200" y="200" width="20" height="20" />
		<rect x="220" y="200" width="20" height="20" />
		<rect x="260" y="200" width="20" height="20" />
		<rect x="300" y="200" width="20" height="20" />
		<rect x="320" y="200" width="20" height="20" />
		<rect x="420" y="200" width="20" height="20" />
		<rect x="440" y="200" width="20" height="20" />
		<rect x="460" y="200" width="20" height="20" />
		<rect x="520" y="200" width="20" height="20" />
		<rect x="580" y="200" width="20" height="20" />
		<rect x="60" y="220" width="20" height="20" />
		<rect x="80" y="220" width="20" height="20" />
		<rect x="140" y="220" width="20" height="20" />
		<rect x="160" y="220" width="20" height="20" />
		<rect x="200" y="220" width="20" height="20" />
		<rect x="260" y="220" width="20" height="20" />
		<rect x="280" y="220" width="20" height="20" />
		<rect x="420" y="220" width="20" height="20" />
		<rect x="440" y="220" width="20" height="20" />
		<rect x="460" y="220" width="20" height="20" />
		<rect x="480" y="220" width="20" height="20" />
		<rect x="500" y="220" width="20" height="20" />
		<rect x="540" y="220" width="20" height="20" />
		<rect x="560" y="220" width="20" height="20" />
		<rect x="580" y="220" width="20" height="20" />
		<rect x="20" y="240" width="20" height="20" />
		<rect x="40" y="240" width="20" height="20" />
		<rect x="80" y="240" width="20" height="20" />
		<rect x="100" y="240" width="20" height="20" />
		<rect x="120" y="240" width="20" height="20" />
		<rect x="220" y="240" width="20" height="20" />
		<rect x="260" y="240" width="20" height="20" />
		<rect x="320" y="240" width="20" height="20" />
		<rect x="360" y="240" width="20" height="20" />
		<rect x="380" y="240" width="20" height="20" />
		<rect x="400" y="240" width="20" height="20" />
		<rect x="420" y="240" width="20" height="20" />
		<rect x="460" y="240" width="20" height="20" />
		<rect x="480" y="240" width="20" height="20" />
		<rect x="560" y="240" width="20" height="20" />
		<rect x="40" y="260" width="20" height="20" />
		<rect x="80" y="260" width="20" height="20" />
		<rect x="100" y="260" width="20" height="20" />
		<rect x="140" y="260" width="20" height="20" />
		<rect x="180" y="260" width="20" height="20" />
		<rect x="220" y="260" width="20" height="20" />
		<rect x="260" y="260" width="20" height="20" />
		<rect x="340" y="260" width="20" height="20" />
		<rect x="360" y="260" width="20" height="20" />
		<rect x="420" y="260" width="20" height="20" />
		<rect x="460" y="260" width="20" height="20" />
		<rect x="520" y="260" width="20" height="20" />
		<rect x="560" y="260" width="20" height="20" />
		<rect x="580" y="260" width="20" height="20" />
		<rect x="20" y="280" width="20" height="20" />
		<rect x="180" y="280" width="20" height="20" />
		<rect x="220" y="280" width="20" height="20" />
		<rect x="240" y="280" width="20" height="20" />
		<rect x="280" y="280" width="20" height="20" />
		<rect x="320" y="280" width="20" height="20" />
		<rect x="340" y="280" width="20" height="20" />
		<rect x="360" y="280" width="20" height="20" />
		<rect x="420" y="280" width="20" height="20" />
		<rect x="440" y="280" width="20" height="20" />
		<rect x="460" y="280" width="20" height="20" />
		<rect x="520" y="280" width="20" height="20" />
		<rect x="580" y="280" width="20" height="20" />
		<rect x="20" y="300" width="20" height="20" />
		<rect x="40" y="300" width="20" height="20" />
		<rect x="60" y="300" width="20" height="20" />
		<rect x="100" y="300" width="20" height="20" />
		<rect x="120" y="300" width="20" height="20" />
		<rect x="140" y="300" width="20" height="20" />
		<rect x="160" y="300" width="20" height="20" />
		<rect x="200" y="300" width="20" height="20" />
		<rect x="220" y="300" width="20" height="20" />
		<rect x="260" y="300" width="20" height="20" />
		<rect x="300" y="300" width="20" height="20" />
		<rect x="320" y="300" width="20" height="20" />
		<rect x="340" y="300" width="20" height="20" />
		<rect x="360" y="300" width="20" height="20" />
		<rect x="380" y="300" width="20" height="20" />
		<rect x="420" y="300" width="20" height="20" />
		<rect x="440" y="300" width="20" height="20" />
		<rect x="500" y="300" width="20" height="20" />
		<rect x="520" y="300" width="20" height="20" />
		<rect x="560" y="300" width="20" height="20" />
		<rect x="580" y="300" width="20" height="20" />
		<rect x="60" y="320" width="20" height="20" />
		<rect x="80" y="320" width="20" height="20" />
		<rect x="100" y="320" width="20" height="20" />
		<rect x="120" y="320" width="20" height="20" />
		<rect x="200" y="320" width="20" height="20" />
		<rect x="220" y="320" width="20" height="20" />
		<rect x="260" y="320" width="20" height="20" />
		<rect x="280" y="320" width="20" height="20" />
		<rect x="300" y="320" width="20" height="20" />
		<rect x="340" y="320" width="20" height="20" />
		<rect x="360" y="320" width="20" height="20" />
		<rect x="400" y="320" width="20" height="20" />
		<rect x="440" y="320" width="20" height="20" />
		<rect x="460" y="320" width="20" height="20" />
		<rect x="520" y="320" width="20" height="20" />
		<rect x="560" y="320" width="20" height="20" />
		<rect x="20" y="340" width="20" height="20" />
		<rect x="40" y="340" width="20" height="20" />
		<rect x="80" y="340" width="20" height="20" />
		<rect x="140" y="340" width="20" height="20" />
		<rect x="180" y="340" width="20" height="20" />
		<rect x="200" y="340" width="20" height="20" />
		<rect x="220" y="340" width="20" height="20" />
		<rect x="240" y="340" width="20" height="20" />
		<rect x="300" y="340" width="20" height="20" />
		<rect x="320" y="340" width="20" height="20" />
		<rect x="340" y="340" width="20" height="20" />
		<rect x="380" y="340" width="20" height="20" />
		<rect x="400" y="340" width="20" height="20" />
		<rect x="420" y="340" width="20" height="20" />
		<rect x="440" y="340" width="20" height="20" />
		<rect x="460" y="340" width="20" height="20" />
		<rect x="480" y="340" width="20" height="20" />
		<rect x="520" y="340" width="20" height="20" />
		<rect x="560" y="340" width="20" height="20" />
		<rect x="580" y="340" width="20" height="20" />
		<rect x="40" y="360" width="20" height="20" />
		<rect x="80" y="360" width="20" height="20" />
		<rect x="100" y="360" width="20" height="20" />
		<rect x="120" y="360" width="20" height="20" />
		<rect x="240" y="360" width="20" height="20" />
		<rect x="300" y="360" width="20" height="20" />
		<rect x="320" y="360" width="20" height="20" />
		<rect x="360" y="360" width="20" height="20" />
		<rect x="380" y="360" width="20" height="20" />
		<rect x="420" y="360" width="20" height="20" />
		<rect x="440" y="360" width="20" height="20" />
		<rect x="460" y="360" width="20" height="20" />
		<rect x="520" y="360" width="20" height="20" />
		<rect x="540" y="360" width="20" height="20" />
		<rect x="580" y="360" width="20" height="20" />
		<rect x="20" y="380" width="20" height="20" />
		<rect x="60" y="380" width="20" height="20" />
		<rect x="140" y="380" width="20" height="20" />
		<rect x="160" y="380" width="20" height="20" />
		<rect x="220" y="380" width="20" height="20" />
		<rect x="240" y="380" width="20" height="20" />
		<rect x="280" y="380" width="20" height="20" />
		<rect x="340" y="380" width="20" height="20" />
		<rect x="380" y="380" width="20" height="20" />
		<rect x="440" y="380" width="20" height="20" />
		<rect x="560" y="380" width="20" height="20" />
		<rect x="580" y="380" width="20" height="20" />
		<rect x="40" y="400" width="20" height="20" />
		<rect x="80" y="400" width="20" height="20" />
		<rect x="100" y="400" width="20" height="20" />
		<rect x="120" y="400" width="20" height="20" />
		<rect x="180" y="400" width="20" height="20" />
		<rect x="220" y="400" width="20" height="20" />
		<rect x="240" y="400" width="20" height="20" />
		<rect x="340" y="400" width="20" height="20" />
		<rect x="360" y="400" width="20" height="20" />
		<rect x="420" y="400" width="20" height="20" />
		<rect x="440" y="400" width="20" height="20" />
		<rect x="460" y="400" width="20" height="20" />
		<rect x="480" y="400" width="20" height="20" />
		<rect x="520" y="400" width="20" height="20" />
		<rect x="560" y="400" width="20" height="20" />
		<rect x="20" y="420" width="20" height="20" />
		<rect x="80" y="420" width="20" height="20" />
		<rect x="100" y="420" width="20" height="20" />
		<rect x="120" y="420" width="20" height="20" />
		<rect x="140" y="420" width="20" height="20" />
		<rect x="260" y="420" width="20" height="20" />
		<rect x="340" y="420" width="20" height="20" />
		<rect x="380" y="420" width="20" height="20" />
		<rect x="400" y="420" width="20" height="20" />
		<rect x="420" y="420" width="20" height="20" />
		<rect x="440" y="420" width="20" height="20" />
		<rect x="460" y="420" width="20" height="20" />
		<rect x="480" y="420" width="20" height="20" />
		<rect x="500" y="420" width="20" height="20" />
		<rect x="180" y="440" width="20" height="20" />
		<rect x="260" y="440" width="20" height="20" />
		<rect x="280" y="440" width="20" height="20" />
		<rect x="340" y="440" width="20" height="20" />
		<rect x="360" y="440" width="20" height="20" />
		<rect x="380" y="440" width="20" height="20" />
		<rect x="400" y="440" width="20" height="20" />
		<rect x="420" y="440" width="20" height="20" />
		<rect x="500" y="440" width="20" height="20" />
		<rect x="540" y="440" width="20" height="20" />
		<rect x="560" y="440" width="20" height="20" />
		<rect x="580" y="440" width="20" height="20" />
		<rect x="20" y="460" width="20" height="20" />
		<rect x="40" y="460" width="20" height="20" />
		<rect x="60" y="460" width="20" height="20" />
		<rect x="80" y="460" width="20" height="20" />
		<rect x="100" y="460" width="20" height="20" />
		<rect x="120" y="460" width="20" height="20" />
		<rect x="140" y="460" width="20" height="20" />
		<rect x="240" y="460" width="20" height="20" />
		<rect x="300" y="460" width="20" height="20" />
		<rect x="360" y="460" width="20" height="20" />
		<rect x="380" y="460" width="20" height="20" />
		<rect x="400" y="460" width="20" height="20" />
		<rect x="420" y="460" width="20" height="20" />
		<rect x="460" y="460" width="20" height="20" />
		<rect x="500" y="460" width="20" height="20" />
		<rect x="520" y="460" width="20" height="20" />
		<rect x="560" y="460" width="20" height="20" />
		<rect x="580" y="460" width="20" height="20" />
		<rect x="20" y="480" width="20" height="20" />
		<rect x="140" y="480" width="20" height="20" />
		<rect x="200" y="480" width="20" height="20" />
		<rect x="220" y="480" width="20" height="20" />
		<rect x="260" y="480" width="20" height="20" />
		<rect x="280" y="480" width="20" height="20" />
		<rect x="300" y="480" width="20" height="20" />
		<rect x="320" y="480" width="20" height="20" />
		<rect x="380" y="480" width="20" height="20" />
		<rect x="400" y="480" width="20" height="20" />
		<rect x="420" y="480" width="20" height="20" />
		<rect x="500" y="480" width="20" height="20" />
		<rect x="520" y="480" width="20" height="20" />
		<rect x="560" y="480" width="20" height="20" />
		<rect x="580" y="480" width="20" height="20" />
		<rect x="20" y="500" width="20" height="20" />
		<rect x="60" y="500" width="20" height="20" />
		<rect x="80" y="500" width="20" height="20" />
		<rect x="100" y="500" width="20" height="20" />
		<rect x="140" y="500" width="20" height="20" />
		<rect x="180" y="500" width="20" height="20" />
		<rect x="220" y="500" width="20" height="20" />
		<rect x="300" y="500" width="20" height="20" />
		<rect x="340" y="500" width="20" height="20" />
		<rect x="420" y="500" width="20" height="20" />
		<rect x="440" y="500" width="20" height="20" />
		<rect x="460" y="500" width="20" height="20" />
		<rect x="480" y="500" width="20" height="20" />
		<rect x="500" y="500" width="20" height="20" />
		<rect x="20" y="520" width="20" height="20" />
		<rect x="60" y="520" width="20" height="20" />
		<rect x="80" y="520" width="20" height="20" />
		<rect x="100" y="520" width="20" height="20" />
		<rect x="140" y="520" width="20" height="20" />
		<rect x="200" y="520" width="20" height="20" />
		<rect x="240" y="520" width="20" height="20" />
		<rect x="280" y="520" width="20" height="20" />
		<rect x="300" y="520" width="20" height="20" />
		<rect x="320" y="520" width="20" height="20" />
		<rect x="360" y="520" width="20" height="20" />
		<rect x="400" y="520" width="20" height="20" />
		<rect x="500" y="520" width="20" height="20" />
		<rect x="540" y="520" width="20" height="20" />
		<rect x="20" y="540" width="20" height="20" />
		<rect x="60" y="540" width="20" height="20" />
		<rect x="80" y="540" width="20" height="20" />
		<rect x="100" y="540" width="20" height="20" />
		<rect x="140" y="540" width="20" height="20" />
		<rect x="180" y="540" width="20" height="20" />
		<rect x="220" y="540" width="20" height="20" />
		<rect x="260" y="540" width="20" height="20" />
		<rect x="280" y="540" width="20" height="20" />
		<rect x="340" y="540" width="20" height="20" />
		<rect x="360" y="540" width="20" height="20" />
		<rect x="380" y="540" width="20" height="20" />
		<rect x="400" y="540" width="20" height="20" />
		<rect x="420" y="540" width="20" height="20" />
		<rect x="480" y="540" width="20" height="20" />
		<rect x="500" y="540" width="20" height="20" />
		<rect x="520" y="540" width="20" height="20" />
		<rect x="580" y="540" width="20" height="20" />
		<rect x="20" y="560" width="20" height="20" />
		<rect x="140" y="560" width="20" height="20" />
		<rect x="240" y="560" width="20" height="20" />
		<rect x="260" y="560" width="20" height="20" />
		<rect x="300" y="560" width="20" height="20" />
		<rect x="320" y="560" width="20" height="20" />
		<rect x="340" y="560" width="20" height="20" />
		<rect x="360" y="560" width="20" height="20" />
		<rect x="420" y="560" width="20" height="20" />
		<rect x="560" y="560" width="20" height="20" />
		<rect x="20" y="580" width="20" height="20" />
		<rect x="40" y="580" width="20" height="20" />
		<rect x="60" y="580" width="20" height="20" />
		<rect x="80" y="580" width="20" height="20" />
		<rect x="100" y="580" width="20" height="20" />
		<rect x="120" y="580" width="20" height="20" />
		<rect x="140" y="580" width="20" height="20" />
		<rect x="180" y="580" width="20" height="20" />
		<rect x="200" y="580" width="20" height="20" />
		<rect x="280" y="580" width="20" height="20" />
		<rect x="300" y="580" width="20" height="20" />
		<rect x="360" y="580" width="20" height="20" />
		<rect x="380" y="580" width="20" height="20" />
		<rect x="400" y="580" width="20" height="20" />
		<rect x="420" y="580" width="20" height="20" />
		<rect x="440" y="580" width="20" height="20" />
		<rect x="460" y="580" width="20" height="20" />
		<rect x="500" y="580" width="20" height="20" />
		<rect x="520" y="580" width="20" height="20" />
		<rect x="560" y="580" width="20" height="20" />
		<rect x="580" y="580" width="20" height="20" />
	</g>
</svg>
